# xmcd
#
# Track frame offsets:
#	225
#	18033
#	33633
#	45336
#	61780
#	71479
#	90961
#	108382
#	122947
#	142301
#	159886
#
# Disc length: 2430 seconds
#
# Revision: 1
# Processed by: cddbd v1.5.2PL0 Copyright (c) Steve Scherf et al.
# Submitted via: audiograbber 1.83.01
#
DISCID=88097b0b
DTITLE=Claude Hay - Deep Fried Satisfied
DYEAR=2010
DGENRE=Blues
TTITLE0=Get me some
TTITLE1=How can you live with yourself
TTITLE2=Deep fried satisfied
TTITLE3=On hold
TTITLE4=Two zero seven
TTITLE5=Friend
TTITLE6=Heading home
TTITLE7=We will rock you
TTITLE8=Dont give me that shit
TTITLE9=Dont forget
TTITLE10=Miss you so
EXTD=Recorded at Red Studios Katoomba.\nMastered by Rick O'neil at Turtlerock.
EXTD=\nwww.claudehay.com.au
EXTT0=
EXTT1=
EXTT2=
EXTT3=
EXTT4=
EXTT5=
EXTT6=
EXTT7=
EXTT8=
EXTT9=
EXTT10=
PLAYORDER=
